<svg width="610" height="159" viewBox="0 0 610 159" fill="none" xmlns="http://www.w3.org/2000/svg">
<path d="M165.762 48.3633H129.492V70.1016H164.707V82.9336H129.492V113.168H165.762V126H115.84V35.5312H165.762V48.3633ZM198.867 95.1211L178.359 68.9297H194.062L206.777 85.5703L219.727 68.9297H235.898L214.805 95.1211L239.238 126H223.535L206.777 104.672L189.609 126H173.496L198.867 95.1211ZM290.273 71.3906V88.9102C287.266 85.2383 284.57 82.7188 282.188 81.3516C279.844 79.9453 277.09 79.2422 273.926 79.2422C268.965 79.2422 264.844 80.9805 261.562 84.457C258.281 87.9336 256.641 92.2891 256.641 97.5234C256.641 102.875 258.223 107.27 261.387 110.707C264.59 114.145 268.672 115.863 273.633 115.863C276.797 115.863 279.59 115.18 282.012 113.812C284.355 112.484 287.109 109.906 290.273 106.078V123.48C284.922 126.254 279.57 127.641 274.219 127.641C265.391 127.641 258.008 124.789 252.07 119.086C246.133 113.344 243.164 106.215 243.164 97.6992C243.164 89.1836 246.172 81.9961 252.188 76.1367C258.203 70.2773 265.586 67.3477 274.336 67.3477C279.961 67.3477 285.273 68.6953 290.273 71.3906ZM345.117 68.9297H358.359V126H345.117V120.023C339.688 125.102 333.848 127.641 327.598 127.641C319.707 127.641 313.184 124.789 308.027 119.086C302.91 113.266 300.352 106 300.352 97.2891C300.352 88.7344 302.91 81.6055 308.027 75.9023C313.145 70.1992 319.551 67.3477 327.246 67.3477C333.887 67.3477 339.844 70.082 345.117 75.5508V68.9297ZM313.828 97.2891C313.828 102.758 315.293 107.211 318.223 110.648C321.23 114.125 325.02 115.863 329.59 115.863C334.473 115.863 338.418 114.184 341.426 110.824C344.434 107.348 345.938 102.934 345.938 97.582C345.938 92.2305 344.434 87.8164 341.426 84.3398C338.418 80.9414 334.512 79.2422 329.707 79.2422C325.176 79.2422 321.387 80.9609 318.34 84.3984C315.332 87.875 313.828 92.1719 313.828 97.2891ZM388.184 27.0352V126H375V27.0352H388.184ZM418.066 68.9297V126H404.883V68.9297H418.066ZM402.891 45.1992C402.891 42.8945 403.73 40.9023 405.41 39.2227C407.09 37.543 409.102 36.7031 411.445 36.7031C413.828 36.7031 415.859 37.543 417.539 39.2227C419.219 40.8633 420.059 42.875 420.059 45.2578C420.059 47.6406 419.219 49.6719 417.539 51.3516C415.898 53.0313 413.887 53.8711 411.504 53.8711C409.121 53.8711 407.09 53.0313 405.41 51.3516C403.73 49.6719 402.891 47.6211 402.891 45.1992ZM447.949 27.0352V75.5508C453.223 70.082 459.199 67.3477 465.879 67.3477C473.574 67.3477 479.98 70.2188 485.098 75.9609C490.215 81.6641 492.773 88.7734 492.773 97.2891C492.773 106.078 490.195 113.344 485.039 119.086C479.922 124.789 473.457 127.641 465.645 127.641C459.043 127.641 453.145 125.102 447.949 120.023V126H434.766V27.0352H447.949ZM479.297 97.875C479.297 92.4062 477.812 87.9531 474.844 84.5156C471.836 81 468.066 79.2422 463.535 79.2422C458.691 79.2422 454.746 80.9414 451.699 84.3398C448.691 87.6992 447.188 92.0742 447.188 97.4648C447.188 103.012 448.672 107.445 451.641 110.766C454.609 114.164 458.516 115.863 463.359 115.863C467.93 115.863 471.719 114.164 474.727 110.766C477.773 107.328 479.297 103.031 479.297 97.875ZM519.902 68.9297V101.684C519.902 111.137 523.633 115.863 531.094 115.863C538.555 115.863 542.285 111.137 542.285 101.684V68.9297H555.469V101.977C555.469 106.547 554.902 110.492 553.77 113.812C552.676 116.781 550.781 119.457 548.086 121.84C543.633 125.707 537.969 127.641 531.094 127.641C524.258 127.641 518.613 125.707 514.16 121.84C511.426 119.457 509.492 116.781 508.359 113.812C507.266 111.156 506.719 107.211 506.719 101.977V68.9297H519.902ZM572.109 68.9297H585.293V74.0273C587.715 71.4883 589.863 69.75 591.738 68.8125C593.652 67.8359 595.918 67.3477 598.535 67.3477C602.012 67.3477 605.645 68.4805 609.434 70.7461L603.398 82.8164C600.898 81.0195 598.457 80.1211 596.074 80.1211C588.887 80.1211 585.293 85.5508 585.293 96.4102V126H572.109V68.9297Z" fill="white"/>
<rect x="29.1575" y="21" width="22.5308" height="101.852" fill="white"/>
<rect width="15.5931" height="79.8893" transform="matrix(-0.00791251 0.999969 -0.999976 -0.00694983 80.0107 123.407)" fill="white"/>
<line x1="40.2603" y1="42.1157" x2="40.2603" y2="122.852" stroke="#D1CBCB"/>
</svg>
